<?xml version="1.0" encoding="utf-8"?>
<!-- Generator: Adobe Illustrator 17.1.0, SVG Export Plug-In . SVG Version: 6.00 Build 0)  -->
<!DOCTYPE svg PUBLIC "-//W3C//DTD SVG 1.0//EN" "http://www.w3.org/TR/2001/REC-SVG-20010904/DTD/svg10.dtd">
<svg version="1.0" id="Layer_1" xmlns="http://www.w3.org/2000/svg" xmlns:xlink="http://www.w3.org/1999/xlink" x="0px" y="0px"
	 viewBox="0 0 360 337.2" enable-background="new 0 0 360 337.2" xml:space="preserve">
<g>
	<g>
		<path stroke="#00FFFF" stroke-width="2" stroke-miterlimit="10" d="M120.8,286.8"/>
		<path d="M0,158l0.3,20.8c0,0,2.2,137,100.9,152.2c19.6,2.2,76.7,4.3,78.9-57.8c-0.9-42.9-32.9-50.9-48.3-50s-30.2,16.8-30.2,34.5
			c0,18.2,24.1,30.3,36,22.1c12.5-8.1,5-19.6,4.1-20.7c0,0-6.6-8.2-18.1-0.4c-2.5-2.2-2.8-16.8,14.6-17.4
			c15.4-0.6,25.2,13.5,22.7,33.1c-2.5,19.7-19.3,35.2-45.3,33c-28.9-4.7-80.5-17.2-87.6-128.6h9.9v-22.1H27.6
			c7-111.4,58.7-123.9,87.6-128.6c26.1-2.2,42.9,13.4,45.3,33c2.5,19.7-7.3,33.7-22.7,33.1c-17.4-0.6-17.1-15.2-14.6-17.4
			c11.5,7.8,18.1-0.4,18.1-0.4c0.9-1.1,7.8-13.5-4.1-20.7c-11.9-8.3-36,3.8-36,22.1c0,17.7,14.8,33.5,30.2,34.5
			c15.4,0.9,47.4-7.1,48.3-50c-2.2-62.1-59.3-59.9-78.9-57.8C2.2,19.7,0,156.7,0,156.7V158z"/>
		<rect x="153.3" y="260.6" width="53.4" height="21.2"/>
		<rect x="153.3" y="53" width="53.4" height="21.2"/>
		<polygon points="101.1,299 101.1,337.1 122.3,337.2 122.3,299 		"/>
		<polygon points="238,299.1 238,337.1 259.2,337.2 259.2,299.1 		"/>
		<rect x="101.1" width="21.2" height="36.7"/>
		<rect x="238" width="21.2" height="36.7"/>
	</g>
	<path d="M360,158l-0.3,20.8c0,0-2.2,137-100.9,152.2c-19.6,2.2-76.7,4.3-78.9-57.8c0.9-42.9,32.9-50.9,48.3-50s30.2,16.8,30.2,34.5
		c0,18.2-24.1,30.3-36,22.1c-12.5-8.1-5-19.6-4.1-20.7c0,0,6.6-8.2,18.1-0.4c2.5-2.2,2.8-16.8-14.6-17.4
		c-15.4-0.6-25.2,13.5-22.7,33.1c2.5,19.7,19.3,35.2,45.3,33c28.9-4.7,80.5-17.2,87.6-128.6h-9.9v-22.1h10.2
		c-7-111.4-58.7-123.9-87.6-128.6c-26.1-2.2-42.9,13.4-45.3,33c-2.5,19.7,7.3,33.7,22.7,33.1c17.4-0.6,17.1-15.2,14.6-17.4
		c-11.5,7.8-18.1-0.4-18.1-0.4c-0.9-1.1-7.8-13.5,4.1-20.7c11.9-8.3,36,3.8,36,22.1c0,17.7-14.8,33.5-30.2,34.5
		c-15.4,0.9-47.4-7.1-48.3-50c2.2-62.1,59.3-59.9,78.9-57.8C357.8,19.7,360,156.7,360,156.7V158z"/>
</g>
</svg>
