<svg xmlns="http://www.w3.org/2000/svg" version="1" viewBox="0 0 451.99999 99.799999" enable-background="new 0 0 471.4 118.6"><g fill="#fff"><path d="M74 12.9h-31.4v84.5h-11.2v-84.5h-31.4v-10.5h74v10.5z"/><path d="M131.4 99.8c-7.2 0-13.9-1.3-19.9-3.8-6-2.5-11.3-6-15.7-10.4-4.4-4.4-7.9-9.7-10.3-15.8-2.5-6.1-3.7-12.8-3.7-19.9 0-7.2 1.2-13.8 3.7-19.9 2.5-6.1 5.9-11.4 10.3-15.8s9.7-7.9 15.7-10.4 12.7-3.8 19.9-3.8c7.2 0 13.9 1.3 19.9 3.8 6 2.5 11.3 6 15.7 10.4 4.4 4.4 7.9 9.7 10.3 15.8 2.5 6.1 3.7 12.8 3.7 19.9 0 7.2-1.2 13.8-3.7 19.9-2.5 6.1-5.9 11.4-10.3 15.8s-9.7 7.9-15.7 10.4-12.6 3.8-19.9 3.8zm0-10.5c5.5 0 10.6-1 15.2-3.1s8.6-4.9 11.9-8.4c3.3-3.6 5.9-7.8 7.7-12.5 1.8-4.8 2.7-9.9 2.7-15.4s-.9-10.6-2.7-15.4c-1.8-4.8-4.4-9-7.7-12.5-3.3-3.6-7.3-6.4-11.9-8.4-4.6-2.1-9.7-3.1-15.2-3.1s-10.6 1-15.2 3.1-8.6 4.9-11.9 8.4c-3.3 3.6-5.9 7.8-7.7 12.5-1.8 4.8-2.8 9.9-2.8 15.4s.9 10.6 2.8 15.4c1.8 4.8 4.4 9 7.7 12.5 3.3 3.6 7.3 6.4 11.9 8.4 4.6 2.1 9.7 3.1 15.2 3.1z"/><path d="M197.4 2.4h36.5c3.1 0 6.4.4 9.9 1.1 3.5.7 7 1.9 10.4 3.4 3.4 1.6 6.8 3.6 9.9 6.1 3.2 2.5 6 5.5 8.4 9.1 2.4 3.5 4.3 7.6 5.8 12.2 1.4 4.6 2.1 9.8 2.1 15.6 0 5.8-.7 11-2.1 15.6-1.4 4.6-3.4 8.7-5.8 12.2s-5.2 6.6-8.4 9.1-6.5 4.5-9.9 6.1c-3.4 1.6-6.9 2.7-10.4 3.4-3.5.7-6.8 1.1-9.9 1.1h-36.5v-95zm11.3 84.5h21.5c5.5 0 10.5-.7 15.2-2.1 4.6-1.4 8.7-3.6 12.1-6.6 3.4-3 6.1-6.8 8-11.5 2-4.6 3-10.2 3-16.8 0-6.5-1-12.1-3-16.8-2-4.6-4.6-8.5-8-11.5-3.4-3-7.4-5.2-12.1-6.6-4.6-1.4-9.7-2.1-15.2-2.1h-21.5v74z"/><path d="M329.4 2.4h10.6l40.4 94.9h-13.1l-9.7-23.3h-47.5l-9.8 23.3h-12.7l41.8-94.9zm5.1 14.5h-.3l-19.7 46.7h38.8l-18.8-46.7z"/><path d="M405.4 56.5l-35.4-54h14.3l26.7 42.9 27.5-42.9h13.5l-35.4 54v40.9h-11.3v-40.9z"/></g></svg>