<svg id="Layer_2" xmlns="http://www.w3.org/2000/svg" viewBox="-7.8 190.9 476.4 100.8"><style>.st0{fill:#FFF}</style><path class="st0" d="M-7.8 193H75v24.6H48.2v72H19v-72H-7.8V193zm135 98.6c-30.2 0-49.3-18.5-49.3-50.4s19.2-50.4 49.4-50.4 49.4 18.5 49.4 50.4-19.3 50.4-49.5 50.4zm.1-76.4c-13 0-19.6 9.9-19.6 26.1 0 16.1 6.6 26.1 19.6 26.1s19.6-9.9 19.6-26.1c0-16.2-6.6-26.1-19.6-26.1zm62.1-22.2h39.5c31.9 0 50.7 17 50.7 48.3 0 31.3-18.8 48.3-50.7 48.3h-39.5V193zm40.3 24.1h-11.3v48.3h11.3c13.8 0 20-9.5 20-24.2 0-14.6-6.2-24.1-20-24.1zm150.9 72.5H351l-5.9-17.5h-31.6l-5.9 17.5h-28.4l34.2-96.6h33l34.2 96.6zm-51.4-70.4c-1.7 8-8.8 31.7-8.8 31.7h17.8s-7.3-23.7-8.7-31.7h-.3zM468.6 193l-38.4 58.7v38h-29v-38L362.9 193h33.3l20 32.6 19.9-32.6h32.5z"/></svg>