<svg id="Layer_2" xmlns="http://www.w3.org/2000/svg" viewBox="-13 191.4 479 118.6"><style>.st0{fill:#FFF}</style><path class="st0" d="M-1.6 204.4h77.2v17.4H47.5v80h-21v-80H-1.6v-17.4zm129-2c28.5 0 47.4 19.1 47.4 50.6 0 31.6-18.9 50.6-47.4 50.6S80 284.6 80 253.1c0-31.6 18.9-50.7 47.4-50.7zm0 84c17.5 0 25.9-13.6 25.9-33.4 0-19.8-8.3-33.4-25.9-33.4s-25.9 13.6-25.9 33.4c.1 19.8 8.4 33.4 25.9 33.4zm63.5-82h36.3c29.8 0 47.7 17.7 47.7 48.7 0 31-17.9 48.7-47.7 48.7h-36.3v-97.4zm35.7 17.2h-14.7v62.9h14.7c18.5 0 26.7-12.5 26.7-31.4 0-19-8.2-31.5-26.7-31.5zm144 80.1H349l-7.8-22.5h-34.9l-7.8 22.5h-20.4l35-97.4h22.4l35.1 97.4zm-47.1-74.5c-1.7 6.3-11.5 35.5-11.5 35.5h23.5s-10-29.2-11.7-35.5h-.3zm72.7 33.8l-36.9-56.6h23.9l23.8 37.3 23.6-37.3h23.2L417 261v40.8h-20.9V261z"/></svg>