<?xml version="1.0" encoding="utf-8"?>
<!-- Generator: Adobe Illustrator 17.1.0, SVG Export Plug-In . SVG Version: 6.00 Build 0)  -->
<!DOCTYPE svg PUBLIC "-//W3C//DTD SVG 1.0//EN" "http://www.w3.org/TR/2001/REC-SVG-20010904/DTD/svg10.dtd">
<svg version="1.0" id="Layer_2" xmlns="http://www.w3.org/2000/svg" xmlns:xlink="http://www.w3.org/1999/xlink" x="0px" y="0px"
	 viewBox="0 0 1080 1920" enable-background="new 0 0 1080 1920" xml:space="preserve">
<pattern  width="385.3" height="351.9" patternUnits="userSpaceOnUse" id="MIA-wrought-iron-white" viewBox="192.8 -703 385.3 351.9" overflow="visible">
	<g>
		<polygon fill="none" points="192.8,-703 578.1,-703 578.1,-351.1 192.8,-351.1 		"/>
		<g>
			<g>
				<path fill="#FFFFFF" d="M577.6-186.5l0.3,22.3c0,0,2.3,147,108.3,163.3c21,2.3,82.3,4.7,84.7-62c-1-46-35.4-54.7-51.8-53.7
					c-16.5,1-32.4,18-32.4,37c0,19.6,25.8,32.5,38.6,23.7c13.4-8.7,5.3-21,4.4-22.2c0,0-7.1-8.8-19.4-0.5c-2.7-2.3-3-18,15.7-18.7
					c16.5-0.6,27,14.5,24.3,35.6c-2.7,21.1-20.7,37.8-48.7,35.4c-31-5-86.4-18.4-94-138h10.7V-188h-11c7.6-119.6,63-133,94-138
					c28-2.3,46,14.3,48.7,35.4c2.7,21.1-7.8,36.2-24.3,35.6c-18.7-0.7-18.3-16.3-15.7-18.7c12.3,8.3,19.4-0.5,19.4-0.5
					c0.9-1.2,8.3-14.5-4.4-22.2c-12.8-8.9-38.6,4.1-38.6,23.7c0,19,15.9,36,32.4,37c16.5,1,50.8-7.7,51.8-53.7
					c-2.3-66.7-63.7-64.3-84.7-62C580-335,577.6-188,577.6-188"/>
			</g>
		</g>
		<g>
			<g>
				<path fill="#FFFFFF" d="M192.3-186.5l0.3,22.3c0,0,2.3,147,108.3,163.3c21,2.3,82.3,4.7,84.7-62c-1-46-35.4-54.7-51.8-53.7
					s-32.4,18-32.4,37c0,19.6,25.8,32.5,38.6,23.7c13.4-8.7,5.3-21,4.4-22.2c0,0-7.1-8.8-19.4-0.5c-2.7-2.3-3-18,15.7-18.7
					c16.5-0.6,27,14.5,24.3,35.6c-2.7,21.1-20.7,37.8-48.7,35.4c-31-5-86.4-18.4-94-138h10.7V-188h-11c7.6-119.6,63-133,94-138
					c28-2.3,46,14.3,48.7,35.4c2.7,21.1-7.8,36.2-24.3,35.6c-18.7-0.7-18.3-16.3-15.7-18.7c12.3,8.3,19.4-0.5,19.4-0.5
					c0.9-1.2,8.3-14.5-4.4-22.2c-12.8-8.9-38.6,4.1-38.6,23.7c0,19,15.9,36,32.4,37s50.8-7.7,51.8-53.7c-2.3-66.7-63.7-64.3-84.7-62
					C194.6-335,192.3-188,192.3-188"/>
				<polygon fill="#FFFFFF" points="300.8,-356.1 300.8,-316.7 323.5,-316.7 323.5,-356.1 				"/>
				<polygon fill="#FFFFFF" points="447.7,-356.1 447.7,-316.7 470.5,-316.7 470.5,-356.1 				"/>
			</g>
			<path fill="#FFFFFF" d="M578.6-186.5l-0.3,22.3c0,0-2.3,147-108.3,163.3c-21,2.3-82.3,4.7-84.7-62c1-46,35.4-54.7,51.8-53.7
				s32.4,18,32.4,37c0,19.6-25.8,32.5-38.6,23.7c-13.4-8.7-5.3-21-4.4-22.2c0,0,7.1-8.8,19.4-0.5c2.7-2.3,3-18-15.7-18.7
				c-16.5-0.6-27,14.5-24.3,35.6c2.7,21.1,20.7,37.8,48.7,35.4c31-5,86.4-18.4,94-138H538V-188h11c-7.6-119.6-63-133-94-138
				c-28-2.3-46,14.3-48.7,35.4c-2.7,21.1,7.8,36.2,24.3,35.6c18.7-0.7,18.3-16.3,15.7-18.7c-12.3,8.3-19.4-0.5-19.4-0.5
				c-0.9-1.2-8.3-14.5,4.4-22.2c12.8-8.9,38.6,4.1,38.6,23.7c0,19-15.9,36-32.4,37s-50.8-7.7-51.8-53.7c2.3-66.7,63.7-64.3,84.7-62
				C576.3-335,578.6-188,578.6-188"/>
		</g>
		<g>
			<path fill="#FFFFFF" d="M193.3-186.5l-0.3,22.3c0,0-2.3,147-108.3,163.3C63.7,1.5,2.3,3.8,0-62.9c1-46,35.4-54.7,51.8-53.7
				s32.4,18,32.4,37C84.3-60,58.5-47,45.7-55.9c-13.4-8.7-5.3-21-4.4-22.2c0,0,7.1-8.8,19.4-0.5c2.7-2.3,3-18-15.7-18.7
				c-16.5-0.6-27,14.5-24.3,35.6s20.7,37.8,48.7,35.4c31-5,86.4-18.4,94-138h-10.7V-188h11c-7.6-119.6-63-133-94-138
				c-28-2.3-46,14.3-48.7,35.4c-2.7,21.1,7.8,36.2,24.3,35.6c18.7-0.7,18.3-16.3,15.7-18.7c-12.3,8.3-19.4-0.5-19.4-0.5
				c-0.9-1.2-8.3-14.5,4.4-22.2c12.8-8.9,38.6,4.1,38.6,23.7c0,19-15.9,36-32.4,37s-50.8-7.7-51.8-53.7C2.6-356,64-353.6,85-351.3
				C191-335,193.3-188,193.3-188"/>
		</g>
		<g>
			<g>
				<path fill="#FFFFFF" d="M577.6-538.4l0.3,22.3c0,0,2.3,147,108.3,163.3c21,2.3,82.3,4.7,84.7-62c-1-46-35.4-54.7-51.8-53.7
					c-16.5,1-32.4,18-32.4,37c0,19.6,25.8,32.5,38.6,23.7c13.4-8.7,5.3-21,4.4-22.2c0,0-7.1-8.8-19.4-0.5c-2.7-2.3-3-18,15.7-18.7
					c16.5-0.6,27,14.5,24.3,35.6c-2.7,21.1-20.7,37.8-48.7,35.4c-31-5-86.4-18.4-94-138h10.7v-23.8h-11c7.6-119.6,63-133,94-138
					c28-2.3,46,14.3,48.7,35.4c2.7,21.1-7.8,36.2-24.3,35.6c-18.7-0.7-18.3-16.3-15.7-18.7c12.3,8.3,19.4-0.5,19.4-0.5
					c0.9-1.2,8.3-14.5-4.4-22.2c-12.8-8.9-38.6,4.1-38.6,23.7c0,19,15.9,36,32.4,37c16.5,1,50.8-7.7,51.8-53.7
					c-2.3-66.7-63.7-64.3-84.7-62c-106,16.3-108.3,163.3-108.3,163.3"/>
			</g>
		</g>
		<g>
			<g>
				<path fill="#FFFFFF" stroke="#00FFFF" stroke-width="2" stroke-miterlimit="10" d="M321.9-400.1"/>
				<path fill="#FFFFFF" d="M192.3-538.4l0.3,22.3c0,0,2.3,147,108.3,163.3c21,2.3,82.3,4.7,84.7-62c-1-46-35.4-54.7-51.8-53.7
					s-32.4,18-32.4,37c0,19.6,25.8,32.5,38.6,23.7c13.4-8.7,5.3-21,4.4-22.2c0,0-7.1-8.8-19.4-0.5c-2.7-2.3-3-18,15.7-18.7
					c16.5-0.6,27,14.5,24.3,35.6c-2.7,21.1-20.7,37.8-48.7,35.4c-31-5-86.4-18.4-94-138h10.7v-23.8h-11c7.6-119.6,63-133,94-138
					c28-2.3,46,14.3,48.7,35.4c2.7,21.1-7.8,36.2-24.3,35.6c-18.7-0.7-18.3-16.3-15.7-18.7C337-617.2,344-626,344-626
					c0.9-1.2,8.3-14.5-4.4-22.2C326.9-657,301-644,301-624.5c0,19,15.9,36,32.4,37s50.8-7.7,51.8-53.7c-2.3-66.7-63.7-64.3-84.7-62
					c-106,16.3-108.3,163.3-108.3,163.3"/>
				<polygon fill="#FFFFFF" points="356.8,-405.5 414.1,-405.5 414.1,-428.3 356.8,-428.3 				"/>
				<polygon fill="#FFFFFF" points="356.8,-628.3 414.1,-628.3 414.1,-651.1 356.8,-651.1 				"/>
				<polygon fill="#FFFFFF" points="300.8,-387.1 300.8,-346.2 323.5,-346.1 323.5,-387.1 				"/>
				<polygon fill="#FFFFFF" points="447.7,-387 447.7,-346.2 470.5,-346.1 470.5,-387 				"/>
				<polygon fill="#FFFFFF" points="300.8,-708 300.8,-668.6 323.5,-668.6 323.5,-708 				"/>
				<polygon fill="#FFFFFF" points="447.7,-708 447.7,-668.6 470.5,-668.6 470.5,-708 				"/>
			</g>
			<path fill="#FFFFFF" d="M578.6-538.4l-0.3,22.3c0,0-2.3,147-108.3,163.3c-21,2.3-82.3,4.7-84.7-62c1-46,35.4-54.7,51.8-53.7
				s32.4,18,32.4,37c0,19.6-25.8,32.5-38.6,23.7c-13.4-8.7-5.3-21-4.4-22.2c0,0,7.1-8.8,19.4-0.5c2.7-2.3,3-18-15.7-18.7
				c-16.5-0.6-27,14.5-24.3,35.6c2.7,21.1,20.7,37.8,48.7,35.4c31-5,86.4-18.4,94-138H538v-23.8h11c-7.6-119.6-63-133-94-138
				c-28-2.3-46,14.3-48.7,35.4c-2.7,21.1,7.8,36.2,24.3,35.6c18.7-0.7,18.3-16.3,15.7-18.7c-12.3,8.3-19.4-0.5-19.4-0.5
				c-0.9-1.2-8.3-14.5,4.4-22.2c12.8-8.9,38.6,4.1,38.6,23.7c0,19-15.9,36-32.4,37s-50.8-7.7-51.8-53.7c2.3-66.7,63.7-64.3,84.7-62
				c106,16.3,108.3,163.3,108.3,163.3"/>
		</g>
		<g>
			<path fill="#FFFFFF" d="M193.3-538.4l-0.3,22.3c0,0-2.3,147-108.3,163.3c-21,2.3-82.3,4.7-84.7-62c1-46,35.4-54.7,51.8-53.7
				s32.4,18,32.4,37c0,19.6-25.8,32.5-38.6,23.7c-13.4-8.7-5.3-21-4.4-22.2c0,0,7.1-8.8,19.4-0.5c2.7-2.3,3-18-15.7-18.7
				c-16.5-0.6-27,14.5-24.3,35.6c2.7,21.1,20.7,37.8,48.7,35.4c31-5,86.4-18.4,94-138h-10.7v-23.8h11c-7.6-119.6-63-133-94-138
				c-28-2.3-46,14.3-48.7,35.4c-2.7,21.1,7.8,36.2,24.3,35.6c18.7-0.7,18.3-16.3,15.7-18.7c-12.3,8.3-19.4-0.5-19.4-0.5
				c-0.9-1.2-8.3-14.5,4.4-22.2c12.8-8.9,38.6,4.1,38.6,23.7c0,19-15.9,36-32.4,37s-50.8-7.7-51.8-53.7c2.3-66.7,63.7-64.3,84.7-62
				c106,16.3,108.3,163.3,108.3,163.3"/>
		</g>
		<g>
			<g>
				<polygon fill="#FFFFFF" points="300.8,-738.9 300.8,-698.1 323.5,-698 323.5,-738.9 				"/>
				<polygon fill="#FFFFFF" points="447.7,-738.8 447.7,-698.1 470.5,-698 470.5,-738.8 				"/>
			</g>
		</g>
	</g>
</pattern>
<radialGradient id="SVGID_1_" cx="540" cy="960" r="778.8453" gradientUnits="userSpaceOnUse">
	<stop  offset="5.102041e-03" style="stop-color:#363636"/>
	<stop  offset="1" style="stop-color:#000000"/>
</radialGradient>
<rect fill="url(#SVGID_1_)" width="1080" height="1920"/>
<rect x="0" opacity="0.14" fill="url(#MIA-wrought-iron-white)" width="1080" height="1920"/>
</svg>
