<?xml version="1.0" encoding="utf-8"?>
<!-- Generator: Adobe Illustrator 17.1.0, SVG Export Plug-In . SVG Version: 6.00 Build 0)  -->
<!DOCTYPE svg PUBLIC "-//W3C//DTD SVG 1.0//EN" "http://www.w3.org/TR/2001/REC-SVG-20010904/DTD/svg10.dtd">
<svg version="1.0" id="Layer_1" xmlns="http://www.w3.org/2000/svg" xmlns:xlink="http://www.w3.org/1999/xlink" x="0px" y="0px"
	 viewBox="0 0 471.4 118.6" enable-background="new 0 0 471.4 118.6" xml:space="preserve">
<g>
	<path fill="#FFFFFF" d="M86.7,23.3H55.3v84.5H44.1V23.3H12.7V12.8h74V23.3z"/>
	<path fill="#FFFFFF" d="M144.1,110.2c-7.2,0-13.9-1.3-19.9-3.8c-6-2.5-11.3-6-15.7-10.4c-4.4-4.4-7.9-9.7-10.3-15.8
		c-2.5-6.1-3.7-12.8-3.7-19.9c0-7.2,1.2-13.8,3.7-19.9c2.5-6.1,5.9-11.4,10.3-15.8c4.4-4.4,9.7-7.9,15.7-10.4
		c6-2.5,12.7-3.8,19.9-3.8c7.2,0,13.9,1.3,19.9,3.8c6,2.5,11.3,6,15.7,10.4c4.4,4.4,7.9,9.7,10.3,15.8c2.5,6.1,3.7,12.8,3.7,19.9
		c0,7.2-1.2,13.8-3.7,19.9c-2.5,6.1-5.9,11.4-10.3,15.8s-9.7,7.9-15.7,10.4C158,108.9,151.4,110.2,144.1,110.2z M144.1,99.7
		c5.5,0,10.6-1,15.2-3.1c4.6-2.1,8.6-4.9,11.9-8.4c3.3-3.6,5.9-7.8,7.7-12.5c1.8-4.8,2.7-9.9,2.7-15.4c0-5.5-0.9-10.6-2.7-15.4
		c-1.8-4.8-4.4-9-7.7-12.5c-3.3-3.6-7.3-6.4-11.9-8.4c-4.6-2.1-9.7-3.1-15.2-3.1c-5.5,0-10.6,1-15.2,3.1c-4.6,2.1-8.6,4.9-11.9,8.4
		c-3.3,3.6-5.9,7.8-7.7,12.5c-1.8,4.8-2.8,9.9-2.8,15.4c0,5.5,0.9,10.6,2.8,15.4c1.8,4.8,4.4,9,7.7,12.5c3.3,3.6,7.3,6.4,11.9,8.4
		C133.5,98.7,138.6,99.7,144.1,99.7z"/>
	<path fill="#FFFFFF" d="M210.1,12.8h36.5c3.1,0,6.4,0.4,9.9,1.1c3.5,0.7,7,1.9,10.4,3.4c3.4,1.6,6.8,3.6,9.9,6.1
		c3.2,2.5,6,5.5,8.4,9.1c2.4,3.5,4.3,7.6,5.8,12.2c1.4,4.6,2.1,9.8,2.1,15.6c0,5.8-0.7,11-2.1,15.6c-1.4,4.6-3.4,8.7-5.8,12.2
		c-2.4,3.5-5.2,6.6-8.4,9.1c-3.2,2.5-6.5,4.5-9.9,6.1c-3.4,1.6-6.9,2.7-10.4,3.4c-3.5,0.7-6.8,1.1-9.9,1.1h-36.5V12.8z M221.4,97.3
		h21.5c5.5,0,10.5-0.7,15.2-2.1c4.6-1.4,8.7-3.6,12.1-6.6c3.4-3,6.1-6.8,8-11.5c2-4.6,3-10.2,3-16.8c0-6.5-1-12.1-3-16.8
		c-2-4.6-4.6-8.5-8-11.5c-3.4-3-7.4-5.2-12.1-6.6c-4.6-1.4-9.7-2.1-15.2-2.1h-21.5V97.3z"/>
	<path fill="#FFFFFF" d="M342.1,12.8h10.6l40.4,94.9h-13.1l-9.7-23.3h-47.5l-9.8,23.3h-12.7L342.1,12.8z M347.2,27.3h-0.3L327.2,74
		h38.8L347.2,27.3z"/>
	<path fill="#FFFFFF" d="M418.1,66.9l-35.4-54H397l26.7,42.9l27.5-42.9h13.5l-35.4,54v40.9h-11.3V66.9z"/>
</g>
</svg>
